<?xml version="1.0" encoding="UTF-8"?>
<svg xmlns="http://www.w3.org/2000/svg" viewBox="0 0 320 200" role="img" aria-labelledby="t">
  <title id="t">Stylized researcher holding a clipboard beside stacked study notes</title>
  <rect width="320" height="200" fill="#E1F5EE"/>
  <!-- standing figure: circle head, block torso, stick limbs -->
  <circle cx="60" cy="50" r="15" fill="#f7f6f3" stroke="#1c1c1a" stroke-width="1.5"/>
  <rect x="48" y="66" width="24" height="48" rx="2" fill="#0F6E56" stroke="#1c1c1a" stroke-width="1.4"/>
  <line x1="46" y1="114" x2="40" y2="168" stroke="#1c1c1a" stroke-width="2.5" stroke-linecap="round"/>
  <line x1="74" y1="114" x2="80" y2="168" stroke="#1c1c1a" stroke-width="2.5" stroke-linecap="round"/>
  <line x1="72" y1="88" x2="118" y2="128" stroke="#1c1c1a" stroke-width="2.5" stroke-linecap="round"/>
  <circle cx="118" cy="128" r="4" fill="#f7f6f3" stroke="#1c1c1a" stroke-width="1.2"/>
  <!-- clipboard in the hands -->
  <rect x="128" y="52" width="80" height="102" rx="5" fill="#f7f6f3" stroke="#0F6E56" stroke-width="1.5"/>
  <rect x="150" y="44" width="36" height="14" rx="3" fill="#0F6E56"/>
  <rect x="136" y="68" width="64" height="76" rx="2" fill="#ffffff" stroke="#0F6E56" stroke-width="1"/>
  <polyline points="144,132 154,114 166,120 176,94 190,100" fill="none" stroke="#0F6E56" stroke-width="1.8" stroke-linejoin="round"/>
  <circle cx="144" cy="132" r="2" fill="#0F6E56"/>
  <circle cx="154" cy="114" r="2" fill="#0F6E56"/>
  <circle cx="166" cy="120" r="2" fill="#0F6E56"/>
  <circle cx="176" cy="94" r="2" fill="#0F6E56"/>
  <circle cx="190" cy="100" r="2" fill="#0F6E56"/>
  <path d="M144 78h48M144 86h32" stroke="#9a9990" stroke-width="1.1"/>
  <!-- stacked notes + bars -->
  <rect x="230" y="58" width="68" height="92" rx="3" fill="#f7f6f3" stroke="#3B6D11" stroke-width="1.3"/>
  <rect x="224" y="50" width="68" height="92" rx="3" fill="#EAF3DE" stroke="#3B6D11" stroke-width="1.4"/>
  <rect x="238" y="106" width="10" height="24" fill="#97C459"/>
  <rect x="254" y="94" width="10" height="36" fill="#3B6D11"/>
  <rect x="270" y="82" width="10" height="48" fill="#0F6E56"/>
  <path d="M238 66h40M238 76h26" stroke="#5a5a55" stroke-width="1.2"/>
</svg>
